<?xml version="1.0" standalone="no"?>
<!DOCTYPE svg PUBLIC "-//W3C//DTD SVG 20010904//EN"
 "http://www.w3.org/TR/2001/REC-SVG-20010904/DTD/svg10.dtd">
<svg version="1.0" xmlns="http://www.w3.org/2000/svg"
 width="900.000000pt" height="900.000000pt" viewBox="0 0 900.000000 900.000000"
 preserveAspectRatio="xMidYMid meet">
<metadata>
Created by potrace 1.14, written by Peter Selinger 2001-2017
</metadata>
<g transform="translate(0.000000,900.000000) scale(0.100000,-0.100000)"
fill="#000000" stroke="none">
<path d="M3935 7764 c-145 -19 -319 -60 -404 -94 -40 -17 -81 -30 -90 -30 -10
0 -20 -3 -24 -6 -9 -10 -160 -74 -174 -74 -6 0 -13 -3 -15 -7 -1 -5 -34 -23
-73 -42 -38 -19 -103 -56 -143 -83 -40 -26 -76 -48 -81 -48 -5 0 -11 -3 -13
-7 -1 -5 -41 -37 -88 -73 -110 -84 -220 -186 -296 -275 -69 -81 -177 -221
-187 -242 -6 -13 -13 -23 -17 -23 -4 0 -10 -8 -14 -17 -3 -10 -19 -38 -36 -63
-58 -88 -171 -333 -200 -432 -8 -27 -19 -48 -24 -48 -5 0 -7 -3 -4 -6 4 -3 -3
-38 -14 -77 -26 -91 -44 -178 -53 -248 -4 -30 -9 -57 -11 -60 -5 -9 -17 -237
-17 -319 2 -104 12 -234 24 -303 13 -76 35 -98 310 -321 59 -48 86 -59 74 -28
-4 9 -11 31 -15 47 -5 17 -17 60 -28 97 -20 66 -44 182 -61 293 -11 67 -8 451
3 505 4 19 9 44 11 55 2 11 7 36 10 55 43 231 153 503 282 699 31 47 59 88 63
91 3 3 21 25 40 50 83 109 295 318 361 357 16 10 29 21 29 25 0 4 6 8 14 8 8
0 16 4 18 8 14 37 380 222 513 260 22 6 72 20 110 31 69 19 84 23 155 35 19 3
51 9 70 12 61 11 462 13 530 2 380 -60 665 -177 945 -387 67 -51 257 -237 325
-320 56 -67 160 -219 160 -233 0 -6 6 -16 14 -22 18 -15 86 -146 115 -221 12
-33 26 -67 30 -75 12 -22 69 -210 75 -245 3 -16 10 -48 15 -70 10 -40 14 -69
30 -200 19 -154 -2 -483 -39 -615 -5 -19 -21 -75 -36 -125 -14 -49 -27 -94
-28 -100 -2 -5 -8 -23 -14 -38 -7 -16 -12 -32 -12 -37 0 -5 -28 -64 -62 -132
-63 -126 -162 -282 -223 -353 -19 -22 -38 -44 -43 -50 -31 -42 -99 -121 -109
-128 -21 -13 6 -53 49 -73 43 -19 118 -89 118 -109 0 -7 6 -17 13 -23 17 -15
45 12 202 194 14 17 47 62 59 83 34 56 72 115 81 125 52 59 195 367 242 521
37 122 59 227 89 419 9 59 11 359 3 451 -17 196 -55 373 -119 560 -34 97 -107
271 -124 295 -6 8 -17 26 -24 39 -8 13 -23 40 -34 59 -37 66 -154 233 -231
327 -39 49 -223 235 -232 235 -3 0 -16 10 -29 23 -48 46 -212 165 -281 203
-11 6 -38 21 -59 33 -181 103 -468 216 -641 251 -198 40 -219 42 -455 45 -125
1 -244 -3 -305 -11z"/>
<path d="M4400 7349 c-50 -7 -142 -31 -150 -39 -3 -3 -25 -15 -50 -28 -58 -29
-171 -127 -189 -164 -7 -15 -17 -28 -22 -28 -5 0 -9 -7 -9 -15 0 -8 -5 -15
-10 -15 -6 0 -9 -3 -8 -7 1 -5 -5 -21 -12 -38 -7 -16 -15 -39 -17 -50 -14 -78
-23 -87 -118 -115 -111 -33 -355 -142 -355 -159 0 -3 -12 -12 -27 -18 -16 -7
-40 -23 -55 -35 -14 -13 -49 -41 -77 -63 -28 -22 -51 -43 -51 -47 0 -5 -7 -8
-15 -8 -8 0 -15 -4 -15 -9 0 -5 -21 -31 -47 -59 -74 -78 -151 -182 -136 -182
4 0 3 -4 -3 -8 -14 -9 -94 -149 -88 -155 3 -2 -2 -10 -11 -17 -8 -7 -15 -21
-15 -31 0 -11 -5 -19 -10 -19 -6 0 -9 -3 -8 -7 1 -5 -9 -39 -22 -78 -21 -64
-55 -195 -65 -255 -7 -44 -8 -292 -1 -360 21 -199 107 -436 221 -608 60 -92
79 -116 152 -194 78 -85 127 -109 203 -100 96 11 152 118 115 222 -7 21 -15
49 -17 61 -2 13 -6 29 -11 34 -4 6 -31 57 -61 115 -73 143 -99 190 -114 209
-7 9 -12 20 -11 25 0 5 -3 12 -8 15 -12 8 -111 181 -115 201 -2 8 -6 17 -9 20
-7 5 -58 126 -64 150 -2 8 -4 15 -5 15 -1 0 -3 7 -5 15 -2 8 -11 40 -19 70
-43 160 -25 220 59 204 32 -6 39 -14 79 -93 63 -124 67 -131 111 -191 102
-140 276 -302 368 -342 15 -7 27 -16 27 -20 0 -4 7 -5 15 -1 14 5 14 8 2 27
-22 35 -40 113 -42 189 -6 202 98 381 278 477 42 23 77 40 77 37 0 -3 24 1 53
9 202 54 436 -46 559 -237 36 -57 72 -191 72 -269 -1 -112 -55 -274 -101 -303
-7 -4 -13 -13 -13 -19 0 -12 -36 -48 -99 -95 -39 -30 -72 -48 -166 -89 l-30
-13 32 -1 c26 0 140 34 253 76 8 3 16 5 17 5 12 -2 313 156 323 169 3 3 27 21
53 39 26 18 61 46 78 62 16 16 32 29 36 29 3 0 28 25 56 55 43 47 54 55 86 55
20 0 46 -3 58 -6 28 -8 47 -55 39 -97 -8 -38 -116 -206 -133 -207 -6 0 -15 -9
-18 -20 -3 -11 -11 -20 -16 -20 -5 0 -9 -5 -9 -11 0 -28 -313 -335 -415 -408
-19 -13 -35 -28 -35 -33 0 -4 -6 -8 -14 -8 -15 0 -60 -42 -83 -77 -22 -34 -18
-115 8 -155 31 -48 63 -68 117 -75 42 -4 57 0 140 42 50 26 92 52 92 56 0 5 7
9 15 9 8 0 15 5 15 10 0 6 5 10 11 10 6 0 16 6 24 13 7 6 30 25 51 42 34 26
191 182 219 217 109 136 221 374 258 548 9 41 19 89 23 105 14 62 13 388 -2
455 -8 36 -16 79 -19 95 -3 17 -9 39 -14 50 -5 11 -17 45 -27 75 -20 63 -80
192 -124 265 -17 28 -33 57 -37 65 -17 37 -165 210 -180 210 -4 0 -18 -18 -31
-38 -28 -46 -75 -96 -132 -143 -23 -19 -47 -39 -54 -45 -23 -22 -133 -73 -196
-90 -62 -18 -249 -24 -305 -10 -11 2 -24 5 -29 5 -5 1 -6 4 -2 8 3 4 32 8 64
10 31 1 71 5 87 9 17 3 42 8 58 11 15 3 27 9 27 13 0 4 12 10 28 13 38 8 162
103 211 162 38 46 118 185 107 185 -3 0 1 15 8 33 23 55 21 224 -4 313 -20 72
-72 175 -91 182 -5 2 -9 9 -9 17 0 12 -75 81 -124 114 -12 8 -23 17 -26 20 -7
8 -78 41 -124 57 -21 8 -73 17 -115 20 -42 3 -80 6 -86 8 -5 1 -30 -1 -55 -5z"/>
<path d="M2033 4900 c2 -14 6 -32 9 -40 3 -8 17 -49 31 -90 43 -126 62 -175
70 -178 4 -2 7 -10 7 -17 0 -14 30 -76 41 -85 4 -3 9 -15 13 -27 4 -11 24 -48
46 -82 22 -34 36 -61 32 -61 -4 0 -2 -4 3 -8 6 -4 15 -14 20 -23 38 -60 109
-165 114 -169 4 -3 14 -15 23 -28 8 -12 32 -40 52 -62 20 -21 36 -44 36 -49 0
-5 9 -13 20 -16 11 -3 20 -9 20 -13 0 -4 11 -20 25 -36 14 -16 25 -27 25 -24
0 3 24 -18 53 -46 63 -61 127 -116 127 -109 0 2 6 -2 14 -9 43 -39 186 -140
186 -131 0 5 4 3 8 -3 7 -10 108 -74 117 -74 3 0 29 -16 59 -34 29 -19 65 -38
80 -42 14 -3 26 -10 26 -15 0 -5 3 -8 8 -7 4 2 25 -5 47 -14 22 -9 44 -16 48
-16 4 0 19 -8 33 -16 13 -9 24 -14 24 -11 0 2 12 0 28 -6 45 -18 223 -68 262
-74 19 -3 47 -8 60 -11 45 -10 83 -15 220 -30 61 -7 345 -7 400 0 19 2 64 7
100 11 66 8 95 12 95 15 0 1 50 9 90 13 11 1 23 5 26 9 3 5 17 9 32 10 15 1
27 6 27 11 0 4 6 7 13 6 18 -4 80 12 95 23 6 6 12 8 12 5 0 -5 58 12 100 30 8
3 20 7 25 8 6 2 28 11 50 20 22 10 42 19 45 19 17 5 93 45 137 72 28 18 54 30
57 27 3 -4 6 -2 6 4 0 5 18 18 40 28 22 10 40 22 40 27 0 4 5 8 10 8 12 0 92
51 102 65 4 5 8 7 8 2 0 -8 17 6 80 66 49 47 54 94 16 142 -23 28 -29 30 -93
30 -55 0 -67 3 -65 15 13 53 -14 140 -38 125 -5 -3 -11 -1 -15 5 -10 16 -70
11 -120 -10 -66 -28 -74 -26 -68 13 3 17 7 34 9 36 7 7 -27 76 -48 95 -30 28
-95 30 -130 4 -16 -10 -28 -16 -28 -13 0 4 -14 -5 -31 -19 -17 -14 -36 -26
-43 -26 -7 0 -18 -11 -24 -25 -7 -14 -23 -30 -37 -35 -14 -5 -25 -14 -25 -19
0 -5 -9 -13 -21 -16 -11 -4 -18 -9 -15 -12 6 -6 -88 -73 -103 -73 -4 0 -14 -7
-21 -15 -14 -17 -106 -63 -137 -69 -11 -3 -29 -9 -39 -15 -17 -9 -82 -29 -124
-37 -83 -17 -247 -21 -340 -10 -78 9 -83 11 -97 19 -7 5 -17 6 -21 3 -5 -3
-20 1 -35 9 -15 8 -27 11 -27 8 0 -3 -11 2 -25 11 -14 9 -30 14 -35 11 -6 -3
-10 -1 -10 4 0 6 -6 11 -14 11 -8 0 -21 7 -30 15 -8 9 -19 15 -23 15 -3 0 -8
6 -9 14 -1 10 13 17 50 22 28 4 55 7 60 6 4 -2 13 1 20 6 6 4 25 9 41 11 58 6
206 61 280 104 120 70 176 118 221 189 71 111 4 218 -137 218 -65 0 -195 -31
-287 -69 -110 -46 -222 -82 -272 -88 -25 -3 -53 -9 -62 -14 -26 -14 -149 -23
-293 -23 -170 0 -229 7 -385 44 -25 6 -49 12 -55 13 -5 2 -16 6 -22 10 -7 5
-13 6 -13 3 0 -16 -339 126 -348 147 -2 4 -8 7 -13 7 -12 0 -113 62 -117 72
-2 4 -8 8 -13 8 -6 0 -36 19 -67 43 -59 43 -92 72 -138 118 -7 6 -31 30 -55
54 -24 23 -52 54 -63 68 -44 62 -47 64 -43 37z"/>
<path d="M7814 3502 c-29 -28 -24 -34 214 -264 l100 -97 99 0 c54 0 104 3 112
8 18 11 9 46 -24 95 -14 21 -27 43 -28 49 -1 5 -9 18 -17 28 -34 40 -41 49
-52 74 -6 14 -16 25 -21 25 -6 0 -8 3 -4 6 3 3 1 11 -4 18 -6 6 -18 25 -28 41
l-18 30 -157 1 c-124 0 -161 -3 -172 -14z"/>
<path d="M5517 3438 c-16 -10 -16 -288 1 -304 15 -16 310 -17 330 -1 16 13 17
293 1 303 -15 9 -317 11 -332 2z"/>
<path d="M1904 3427 c-12 -7 -14 -136 -14 -897 0 -685 3 -891 12 -896 19 -12
314 -11 325 2 12 12 15 1765 3 1784 -9 14 -301 21 -326 7z"/>
<path d="M6203 3412 c-18 -19 -18 -1761 0 -1777 14 -11 313 -13 324 -1 4 4 8
96 8 205 l0 198 40 49 c48 58 86 93 102 94 13 0 36 -36 79 -120 15 -30 33 -62
39 -70 7 -8 26 -40 42 -70 88 -161 166 -290 177 -291 6 -1 92 -1 191 -1 156 0
181 2 191 17 14 18 17 11 -63 144 -24 38 -43 74 -43 79 0 6 -3 12 -8 14 -4 2
-27 37 -52 78 -25 41 -48 77 -52 78 -5 2 -8 12 -8 22 0 10 -4 21 -8 24 -7 4
-70 106 -118 191 -40 71 -57 100 -73 123 -40 57 -39 59 86 189 177 182 295
309 305 328 6 10 5 21 -2 31 -10 11 -48 14 -198 14 l-185 0 -41 -43 c-23 -24
-50 -55 -61 -68 -47 -58 -173 -207 -200 -238 -91 -102 -114 -117 -132 -88 -4
6 -8 209 -8 449 0 240 -4 440 -8 445 -5 4 -76 8 -159 8 -113 0 -155 -3 -165
-13z"/>
<path d="M810 2999 c-67 -8 -190 -50 -229 -78 -16 -12 -32 -21 -35 -21 -6 0
-63 -47 -77 -65 -40 -48 -59 -75 -59 -84 0 -6 -4 -11 -8 -11 -10 0 -64 -108
-90 -180 -41 -115 -52 -291 -26 -445 11 -72 63 -198 109 -266 126 -188 305
-271 574 -264 173 5 279 34 391 109 25 16 55 41 68 55 43 47 112 139 112 149
0 5 10 29 23 53 22 41 43 109 53 169 2 14 6 35 9 47 6 27 7 208 1 248 -11 75
-19 103 -47 175 -41 106 -123 228 -190 284 -31 25 -61 46 -68 46 -6 0 -11 3
-11 8 0 9 -38 25 -127 52 -77 23 -266 33 -373 19z m272 -318 c25 -11 53 -30
62 -42 9 -13 16 -19 16 -14 0 12 54 -74 73 -116 30 -70 41 -237 22 -339 -3
-19 -8 -44 -10 -55 -7 -44 -44 -113 -81 -151 -60 -62 -117 -85 -213 -85 -167
0 -258 80 -301 264 -21 91 -21 231 0 307 15 57 70 170 82 170 5 0 19 11 31 25
52 59 222 78 319 36z"/>
<path d="M2895 2975 c-105 -24 -167 -54 -226 -107 -30 -28 -71 -81 -75 -98 0
-3 -9 -23 -18 -44 -10 -22 -19 -48 -21 -58 -2 -10 -6 -22 -9 -26 -13 -21 -14
-91 -1 -102 8 -7 61 -11 137 -12 185 0 177 -2 189 30 51 127 92 151 245 148
144 -4 188 -29 200 -117 8 -58 -24 -103 -91 -123 -50 -16 -69 -19 -175 -30
-30 -4 -64 -8 -75 -10 -11 -2 -42 -7 -70 -11 -59 -8 -209 -55 -213 -67 -2 -4
-9 -8 -16 -8 -27 0 -127 -109 -153 -167 -25 -53 -27 -68 -28 -188 l0 -130 39
-72 c21 -40 41 -73 45 -73 3 0 18 -11 32 -24 22 -21 84 -59 99 -61 3 0 15 -6
28 -13 12 -7 22 -10 22 -8 0 3 12 1 28 -5 35 -14 183 -14 245 0 62 14 147 58
216 109 29 22 59 38 66 36 7 -3 18 -24 25 -47 21 -73 18 -72 208 -71 93 1 175
5 181 8 20 12 12 42 -18 69 -21 18 -31 39 -35 69 -4 24 -8 234 -9 468 -3 267
-8 442 -15 470 -16 66 -46 118 -89 156 -39 35 -178 99 -235 109 -18 3 -46 8
-63 11 -16 4 -84 8 -150 9 -98 3 -138 -1 -220 -20z m408 -730 c22 -22 13 -183
-13 -243 -40 -91 -144 -154 -263 -161 -50 -3 -117 14 -117 30 0 5 -7 9 -15 9
-31 0 -50 50 -49 132 0 74 2 80 32 111 31 32 129 77 168 77 29 0 205 39 223
50 20 12 17 12 34 -5z"/>
<path d="M4582 2984 c-74 -23 -150 -65 -189 -105 -58 -60 -83 -50 -83 31 0 21
-5 42 -11 46 -14 8 -305 8 -319 -1 -7 -4 -10 -232 -10 -661 0 -563 2 -655 15
-660 29 -11 307 -9 323 2 13 10 16 66 17 415 2 222 6 417 9 434 12 52 56 128
93 159 40 34 72 46 152 53 98 9 164 -23 212 -102 l24 -40 2 -454 c1 -296 5
-457 11 -463 15 -15 318 -14 336 1 11 10 13 100 11 519 -2 483 -3 510 -22 563
-44 120 -91 175 -187 222 -104 51 -287 71 -384 41z"/>
<path d="M8005 2994 c-102 -24 -223 -76 -262 -113 -13 -12 -23 -19 -23 -16 0
7 -66 -60 -92 -93 -10 -12 -18 -25 -18 -27 0 -3 -11 -23 -25 -44 -27 -40 -64
-129 -71 -171 -3 -14 -10 -43 -15 -64 -15 -54 -14 -298 0 -371 23 -116 68
-228 99 -248 6 -4 12 -13 12 -18 0 -14 100 -107 123 -115 9 -3 17 -9 17 -14 0
-17 188 -90 269 -104 100 -17 246 -13 336 8 43 11 129 40 135 46 3 3 23 14 45
25 55 27 185 160 212 215 30 63 34 78 27 105 l-6 24 -164 -1 -165 -1 -37 -45
c-61 -75 -123 -102 -237 -105 -62 -2 -175 28 -175 46 0 5 -4 6 -9 3 -8 -6 -95
77 -97 92 0 4 -8 24 -17 44 -19 42 -29 118 -18 136 5 9 127 12 482 14 l474 3
-1 100 c-1 140 -20 260 -52 321 -5 11 -18 36 -28 57 -10 20 -22 37 -26 37 -5
0 -8 7 -8 15 0 8 -4 15 -10 15 -5 0 -10 5 -10 10 0 16 -61 85 -106 120 -43 34
-131 74 -209 95 -64 18 -108 23 -206 23 -68 0 -133 -2 -144 -4z m252 -309 c83
-26 143 -90 172 -182 24 -74 28 -73 -280 -73 -316 0 -311 -1 -278 83 20 51 58
110 89 135 65 55 191 71 297 37z"/>
<path d="M5513 2957 c-12 -20 -10 -1298 3 -1315 9 -12 40 -15 165 -16 106 -1
158 3 167 11 9 9 12 154 12 661 0 508 -3 652 -12 660 -19 14 -326 14 -335 -1z"/>
</g>
</svg>
